<?xml version="1.0" encoding="UTF-8" standalone="no"?>
<!DOCTYPE svg PUBLIC "-//W3C//DTD SVG 20010904//EN"
              "http://www.w3.org/TR/2001/REC-SVG-20010904/DTD/svg10.dtd">

<svg xmlns="http://www.w3.org/2000/svg"
     width="2.55556in" height="2.55556in"
     viewBox="0 0 230 230">
  <path id="Imported Path"
        fill="#727375" stroke="#727375" stroke-width="1"
        d="M 155.17,58.83
           C 155.17,58.83 110.86,107.00 110.86,107.00
             110.86,107.00 155.17,155.17 155.17,155.17
             155.17,155.17 107.00,110.86 107.00,110.86
             107.00,110.86 58.83,155.17 58.83,155.17
             58.83,155.17 103.14,107.00 103.14,107.00
             103.14,107.00 58.83,58.83 58.83,58.83
             58.83,58.83 107.00,103.14 107.00,103.14
             107.00,103.14 155.17,58.83 155.17,58.83M 107.00,7.00
           C 107.00,7.00 111.01,102.99 111.01,102.99
             111.01,102.99 207.00,107.00 207.00,107.00
             207.00,107.00 111.01,111.01 111.01,111.01
             111.01,111.01 107.00,207.00 107.00,207.00
             107.00,207.00 102.99,111.01 102.99,111.01
             102.99,111.01 7.00,107.00 7.00,107.00
             7.00,107.00 102.99,102.99 102.99,102.99
             102.99,102.99 107.00,7.00 107.00,7.00" />
</svg>
