<svg
      xmlns="http://www.w3.org/2000/svg"
      width="0.444444in"
      height="0.444444in"
      viewBox="0 0 150 150"
    >
      <path
        id="Imported Path"
        fill="white"
        stroke="white"
        strokeWidth="0.33"
        d="M 29.63,10.37
           C 29.63,10.37 20.77,20.00 20.77,20.00
             20.77,20.00 29.63,29.63 29.63,29.63
             29.63,29.63 20.00,20.77 20.00,20.77
             20.00,20.77 10.37,29.63 10.37,29.63
             10.37,29.63 19.23,20.00 19.23,20.00
             19.23,20.00 10.37,10.37 10.37,10.37
             10.37,10.37 20.00,19.23 20.00,19.23
             20.00,19.23 29.63,10.37 29.63,10.37M 20.00,0.00
           C 20.00,0.00 20.80,19.20 20.80,19.20
             20.80,19.20 40.00,20.00 40.00,20.00
             40.00,20.00 20.80,20.80 20.80,20.80
             20.80,20.80 20.00,40.00 20.00,40.00
             20.00,40.00 19.20,20.80 19.20,20.80
             19.20,20.80 0.00,20.00 0.00,20.00
             0.00,20.00 19.20,19.20 19.20,19.20
             19.20,19.20 20.00,0.00 20.00,0.00"
      />
    </svg>